<svg xmlns="http://www.w3.org/2000/svg" width="200" height="50" version="1.0" viewBox="0 0 150 37.5"><defs><clipPath id="a"><path d="M1.758 5.852H17v25.164H1.758Zm0 0"/></clipPath><clipPath id="b"><path d="M3 8h21.695v6H3Zm0 0"/></clipPath><clipPath id="c"><path d="M3 14h21.695v7H3Zm0 0"/></clipPath><clipPath id="d"><path d="M3 21h21.695v6H3Zm0 0"/></clipPath></defs><g clip-path="url(#a)"><path fill="#203d4a" fill-rule="evenodd" d="M9.219 28.445a1.038 1.038 0 1 1 .003 2.073 1.038 1.038 0 0 1-.003-2.073M2.852 5.852H15.59c.601 0 1.094.492 1.094 1.093V8.07h-.692v-.492a.404.404 0 0 0-.402-.402H2.852a.404.404 0 0 0-.403.402v19.887c0 .223.18.402.403.402H15.59c.223 0 .402-.18.402-.402v-.606h.692v3.2a1.1 1.1 0 0 1-1.094 1.097H2.852a1.1 1.1 0 0 1-1.094-1.097V6.945c0-.601.492-1.093 1.094-1.093m0 0"/></g><g clip-path="url(#b)"><path fill="#2bbced" d="M24.617 9.297V8.62H6.398a2.62 2.62 0 0 0-1.855.774 2.616 2.616 0 0 0 0 3.707c.477.476 1.133.77 1.855.77h18.22v-.677a1.943 1.943 0 0 1-1.376-.57 1.946 1.946 0 0 1-.574-1.379c0-.535.219-1.023.574-1.375a1.93 1.93 0 0 1 1.375-.574m-18.219 0h16.465a2.616 2.616 0 0 0-.102 3.805c.036.03.067.062.102.093H6.398a1.943 1.943 0 0 1-1.375-.57 1.946 1.946 0 0 1-.574-1.379c0-.535.219-1.023.574-1.375a1.93 1.93 0 0 1 1.375-.574m0 0"/></g><path fill="#2bbced" d="M22.379 10.773a.338.338 0 0 0 0-.675H6.457a.34.34 0 0 0-.34.34.34.34 0 0 0 .34.335ZM22.379 12.395a.336.336 0 0 0 .336-.336.34.34 0 0 0-.336-.34H6.457a.34.34 0 0 0-.34.34c0 .187.153.336.34.336Zm0 0"/><g clip-path="url(#c)"><path fill="#2bbced" d="M24.617 15.516v-.676H6.398a2.632 2.632 0 0 0-2.625 2.625 2.632 2.632 0 0 0 2.625 2.625h18.22v-.676a1.93 1.93 0 0 1-1.376-.574 1.93 1.93 0 0 1 0-2.75 1.93 1.93 0 0 1 1.375-.574m-18.219 0h16.465c-.035.03-.066.062-.101.093a2.632 2.632 0 0 0-.77 1.856c0 .723.297 1.379.77 1.855.035.032.066.063.101.094H6.398a1.93 1.93 0 0 1-1.375-.574 1.93 1.93 0 0 1 0-2.75 1.93 1.93 0 0 1 1.375-.574m0 0"/></g><path fill="#2bbced" d="M22.379 16.992a.338.338 0 0 0 0-.676H6.457a.34.34 0 0 0-.34.336c0 .188.153.34.34.34ZM22.379 18.613a.338.338 0 0 0 0-.675H6.457a.34.34 0 0 0-.34.34.34.34 0 0 0 .34.335Zm0 0"/><g clip-path="url(#d)"><path fill="#2bbced" d="M24.617 21.734v-.675H6.398a2.632 2.632 0 0 0-2.625 2.625 2.632 2.632 0 0 0 2.625 2.625h18.22v-.676a1.93 1.93 0 0 1-1.376-.574 1.93 1.93 0 0 1 0-2.75 1.93 1.93 0 0 1 1.375-.575m-18.219 0h16.465c-.035.032-.066.063-.101.094a2.632 2.632 0 0 0-.77 1.856c0 .722.297 1.378.77 1.855.035.031.066.063.101.094H6.398a1.93 1.93 0 0 1-1.375-.574 1.93 1.93 0 0 1 0-2.75 1.93 1.93 0 0 1 1.375-.575m0 0"/></g><path fill="#2bbced" d="M22.379 23.21a.338.338 0 0 0 0-.676l-15.922.001a.34.34 0 0 0-.34.336c0 .188.153.34.34.34ZM22.379 24.832a.338.338 0 0 0 0-.676H6.457a.34.34 0 0 0-.34.336c0 .188.153.34.34.34Zm0 0"/><path fill="#203d4a" d="M35.675 17.145c.457.273.801.62 1.032 1.046.238.418.359.903.359 1.454 0 .511-.125.992-.375 1.437-.242.45-.59.844-1.047 1.188a4.476 4.476 0 0 1-1.39.718 5.902 5.902 0 0 1-1.657.266c-.586 0-1.14-.078-1.672-.234-.531-.165-1-.41-1.406-.735-.617-.457-1.039-1.015-1.266-1.672l2.266-1.062c0 .117.035.258.11.422.081.156.203.312.359.468.164.149.375.278.625.391.258.105.582.156.969.156.3 0 .566-.035.796-.11.227-.081.422-.179.579-.296.156-.113.273-.242.359-.39a.877.877 0 0 0 .125-.438.781.781 0 0 0-.172-.484c-.117-.157-.293-.274-.531-.36a13.23 13.23 0 0 0-1.36-.375c-.48-.101-.949-.234-1.406-.39a5.614 5.614 0 0 1-1.265-.625 2.597 2.597 0 0 1-.907-1.079 2.849 2.849 0 0 1-.312-1.312c0-.52.117-1.02.36-1.5.237-.488.57-.899 1-1.234.394-.313.835-.551 1.327-.72a5.02 5.02 0 0 1 1.578-.25c.551 0 1.079.087 1.579.25.5.157.945.391 1.343.704.395.293.703.633.922 1.016l-1.844 1.265a2.44 2.44 0 0 0-.843-.75 2.35 2.35 0 0 0-1.141-.281c-.586 0-1.039.133-1.36.39-.312.25-.468.59-.468 1.016 0 .188.086.36.266.516.175.148.406.281.687.406.29.117.613.219.969.313l1.062.28c.352.087.688.18 1 .282.313.094.563.2.75.313M48.385 11.582h2.313v11.469H48.26v-7.563l-2.734 3.828h-1.953l-2.766-3.718v7.453h-2.453V11.582h2.328l3.875 5.297ZM59.274 11.582l4.781 11.469h-2.64l-1.047-2.453h-4.86l-1.015 2.453H51.82l4.78-11.469Zm.172 6.781-1.5-3.61-1.5 3.61ZM73.413 15.004c0 .367-.055.715-.157 1.047a3.25 3.25 0 0 1-1.078 1.625c-.262.21-.543.375-.844.5l3.797 4.875h-2.86l-3.546-4.625h-1.094v4.625h-2.453V11.582h4.938c.457 0 .883.09 1.28.266.407.18.755.422 1.048.734.3.305.535.664.703 1.078.176.418.266.867.266 1.344m-3.594 1.187c.312 0 .578-.113.797-.343.226-.227.343-.508.343-.844 0-.32-.117-.598-.343-.828a1.044 1.044 0 0 0-.797-.36H67.63v2.375ZM75.896 11.582h8.296v2.234h-2.937v9.235h-2.438v-9.235h-2.921ZM90.09 19.363h-4.75v-1.515h4.75ZM99.849 15.004c0 .367-.055.715-.157 1.047a3.25 3.25 0 0 1-1.078 1.625c-.261.21-.543.375-.843.5l3.796 4.875h-2.859l-3.547-4.625h-1.094v4.625h-2.453V11.582h4.938c.457 0 .883.09 1.281.266.406.18.754.422 1.047.734.3.305.535.664.703 1.078.176.418.266.867.266 1.344m-3.594 1.187c.312 0 .578-.113.797-.343.226-.227.344-.508.344-.844 0-.32-.118-.598-.344-.828a1.044 1.044 0 0 0-.797-.36h-2.188v2.375ZM102.738 11.582h7.156v2.234h-4.703v2.063h4.14v2.234h-4.14v2.719h4.703v2.219h-7.156ZM118.484 11.582l4.781 11.469h-2.64l-1.047-2.453h-4.86l-1.015 2.453h-2.672l4.781-11.469Zm.172 6.781-1.5-3.61-1.5 3.61ZM129.03 11.582c.82 0 1.55.152 2.187.453a4.446 4.446 0 0 1 1.593 1.235c.426.523.75 1.132.97 1.828.226.699.343 1.445.343 2.234 0 .793-.121 1.54-.36 2.234a5.97 5.97 0 0 1-.953 1.829c-.406.511-.89.917-1.453 1.218a3.897 3.897 0 0 1-1.828.438h-5.125V11.582Zm.015 9.25c.457 0 .848-.094 1.172-.281.332-.188.61-.442.828-.766.219-.32.375-.691.469-1.11.101-.425.156-.866.156-1.327a6.27 6.27 0 0 0-.14-1.344c-.095-.426-.25-.8-.47-1.125a2.463 2.463 0 0 0-.828-.766c-.336-.195-.73-.297-1.187-.297h-2.188v7.016ZM142.713 17.145c.457.273.801.62 1.031 1.046.239.418.36.903.36 1.454 0 .511-.125.992-.375 1.437-.242.45-.59.844-1.047 1.188a4.476 4.476 0 0 1-1.39.718 5.902 5.902 0 0 1-1.657.266c-.586 0-1.14-.078-1.672-.234-.531-.165-1-.41-1.406-.735-.617-.457-1.04-1.015-1.266-1.672l2.266-1.062c0 .117.035.258.11.422.081.156.202.312.359.468.164.149.375.278.625.391.258.105.582.156.968.156.301 0 .567-.035.797-.11.227-.081.422-.179.578-.296.157-.113.274-.242.36-.39a.877.877 0 0 0 .125-.438.781.781 0 0 0-.172-.484c-.117-.157-.293-.274-.531-.36a13.23 13.23 0 0 0-1.36-.375c-.48-.101-.949-.234-1.406-.39a5.614 5.614 0 0 1-1.266-.625 2.597 2.597 0 0 1-.906-1.079 2.849 2.849 0 0 1-.312-1.312c0-.52.117-1.02.36-1.5.237-.488.57-.899 1-1.234.394-.313.835-.551 1.327-.72a5.02 5.02 0 0 1 1.578-.25c.551 0 1.078.087 1.578.25.5.157.946.391 1.344.704.395.293.703.633.922 1.016l-1.844 1.265a2.44 2.44 0 0 0-.843-.75 2.35 2.35 0 0 0-1.141-.281c-.586 0-1.04.133-1.36.39-.312.25-.468.59-.468 1.016 0 .188.086.36.265.516.176.148.407.281.688.406.289.117.613.219.969.313l1.062.28c.352.087.688.18 1 .282.313.094.563.2.75.313m0 0"/></svg>